<svg xmlns="http://www.w3.org/2000/svg" viewBox="0 0 1544 500"><path fill="#5ABBA9" d="M0 0h1544v500H0z"/><g fill="#FFF"><path d="M1167.973 489.27c-.657-1.022-.95-2.847-1.168-4.38h-.146c-1.752 2.555-4.745 5.11-9.563 5.11-7.519 0-11.096-5.475-11.096-12.337 0-7.592 6.06-13.213 20.513-13.213v-1.606c0-4.38-1.533-7.373-5.621-7.373-3.431 0-6.059 2.92-7.3 5.62l-5.62-6.715c4.16-5.037 9.489-7.154 14.6-7.154 7.226 0 13.431 4.818 13.431 16.717v19.199c0 2.117.219 4.16 1.168 6.132h-9.198zm-1.46-18.177c-6.424-.292-11.534 1.898-11.534 6.57 0 3.139 1.898 4.672 4.088 4.672 4.672 0 7.446-4.015 7.446-8.76v-2.482zM1213.525 481.459c-2.555 5.402-6.862 8.541-13.724 8.541-10.44 0-16.06-7.957-16.06-21.17 0-13.14 5.986-21.608 16.06-21.608 6.79 0 11.023 3.14 13.724 8.395l-7.446 6.278c-.657-3.504-2.555-5.767-5.84-5.767-5.84 0-6.862 6.132-6.862 12.702 0 6.205.803 12.41 6.862 12.41 3.358 0 5.037-2.701 6.132-5.913l7.154 6.132zM1222.87 489.27v-33.434h-4.453v-7.884h4.453c0-9.563 5.037-16.352 17.666-13.943l-1.533 8.541c-1.095-.657-2.117-.949-2.993-.949-2.409 0-3.65 1.752-3.65 4.672v1.68h6.497v7.883h-6.497v33.434h-9.49zM1243.018 470.217v-8.395h19.272v8.395h-19.272zM1287.913 489.27c-.657-1.022-.95-2.847-1.168-4.38h-.146c-1.752 2.555-4.745 5.11-9.563 5.11-7.519 0-11.096-5.475-11.096-12.337 0-7.592 6.059-13.213 20.513-13.213v-1.606c0-4.38-1.533-7.373-5.621-7.373-3.431 0-6.06 2.92-7.3 5.62l-5.62-6.715c4.16-5.037 9.489-7.154 14.599-7.154 7.227 0 13.432 4.818 13.432 16.717v19.199c0 2.117.219 4.16 1.168 6.132h-9.198zm-1.46-18.177c-6.424-.292-11.534 1.898-11.534 6.57 0 3.139 1.898 4.672 4.088 4.672 4.672 0 7.446-4.015 7.446-8.76v-2.482zM1328.72 489.27s-.73-1.971-1.095-4.526h-.146c-2.336 3.504-5.767 5.256-10.074 5.256-8.979 0-12.264-7.665-12.264-16.06v-25.988h9.49v25.915c0 4.088 1.533 7.81 5.913 7.81 4.307 0 6.205-3.576 6.205-7.81v-25.915h9.49v35.405c0 1.46.073 4.088.803 5.913h-8.322zM1366.462 489.343c-1.68.438-3.943.657-6.352.657-8.687 0-11.898-4.453-11.898-12.702v-21.243h-4.308v-8.103h4.308V435.98h9.49v11.972h7.956v8.103h-7.956v20.44c0 2.92 1.825 4.672 4.233 4.672 1.46 0 2.264-.292 2.993-.73l1.534 8.906zM1372.448 468.538c0-12.994 5.037-21.316 16.206-21.316 11.242 0 16.279 8.322 16.279 21.316 0 13.14-5.037 21.462-16.279 21.462-11.169 0-16.206-8.322-16.206-21.462zm22.922 0c0-6.351-1.168-12.848-6.716-12.848-5.401 0-6.642 6.497-6.642 12.848 0 5.986 1.24 12.92 6.642 12.92 5.548 0 6.716-6.277 6.716-12.92zM1433.696 459.705c-2.117-3.577-4.964-4.672-7.957-4.672-2.117 0-4.234 1.387-4.234 3.577 0 2.117 2.336 3.431 5.84 4.745 5.694 2.117 13.286 5.767 13.286 13.432 0 8.103-4.964 13.213-14.162 13.213-7.446 0-12.41-3.577-15.695-8.03l6.643-6.57c2.044 3.139 5.475 6.132 9.49 6.132 2.993 0 4.672-1.68 4.672-3.869 0-2.701-3.212-4.38-7.008-5.84-5.694-2.19-12.337-5.256-12.337-12.775 0-5.329 4.234-11.826 13.797-11.826 5.986 0 10.585 2.41 13.943 6.716l-6.278 5.767zM1448.37 438.243c0-3.139 2.628-5.694 5.767-5.694a5.702 5.702 0 015.694 5.694c0 3.14-2.555 5.767-5.694 5.767s-5.767-2.628-5.767-5.767zm.95 51.027v-41.318h9.49v41.318h-9.49zM1465.744 489.27v-.146l13.944-28.032c.948-1.898 2.116-3.869 2.116-3.869v-.146h-13.505v-9.125h28.47v.146l-14.088 28.105c-.877 1.825-2.19 3.796-2.19 3.796v.146h14.088v9.125h-28.835zM1512.319 471.604c.365 5.548 2.117 10.074 7.811 10.074 3.284 0 5.475-2.263 7.08-5.62l6.644 5.693c-3.504 5.256-7.738 8.249-14.965 8.249-10.439 0-15.986-7.957-15.986-21.17 0-13.14 5.912-21.608 15.986-21.608 12.921 0 15.111 11.096 15.111 21.973v2.409h-21.681zm12.63-6.789c-.147-5.329-1.607-10.001-5.622-10.001-4.672 0-6.425 4.745-6.936 10.001h12.557z"/></g></svg>