<?xml version="1.0" encoding="utf-8"?>
<!-- Generator: Adobe Illustrator 22.0.1, SVG Export Plug-In . SVG Version: 6.00 Build 0)  -->
<svg version="1.1" id="Ebene_1" xmlns="http://www.w3.org/2000/svg" xmlns:xlink="http://www.w3.org/1999/xlink" x="0px" y="0px"
	 viewBox="0 0 1544 500" enable-background="new 0 0 1544 500" xml:space="preserve">
<rect fill="#5ABBA9" width="1544" height="500"/>
<g>
	<path fill="#FFFFFF" d="M1167.9726562,489.2698669c-0.6564941-1.0218506-0.9487305-2.8469238-1.1679688-4.3796997h-0.1455078
		C1164.9071045,487.4447937,1161.9140625,490,1157.0959473,490C1149.5770264,490,1146,484.5248108,1146,477.6629944
		c0-7.59198,6.0592041-13.2133179,20.5129395-13.2133179v-1.6058655c0-4.3796692-1.5327148-7.3727417-5.6213379-7.3727417
		c-3.4309082,0-6.0585938,2.9200134-7.2996826,5.6207581l-5.6207275-6.7156677
		c4.1611328-5.0373535,9.489502-7.1541138,14.5999756-7.1541138c7.2265625,0,13.4318848,4.8181152,13.4318848,16.7167053v19.198822
		c0,2.1173706,0.2186279,4.1610718,1.1680908,6.1322937H1167.9726562z M1166.5129395,471.092865
		c-6.4239502-0.2917175-11.5338135,1.8981323-11.5338135,6.5701294c0,3.1386108,1.897583,4.6719666,4.0880127,4.6719666
		c4.6719971,0,7.4458008-4.0149231,7.4458008-8.7599487V471.092865z"/>
	<path fill="#FFFFFF" d="M1213.5250244,481.4586792C1210.9698486,486.8607788,1206.663208,490,1199.8013916,490
		c-10.4394531,0-16.0601807-7.9573364-16.0601807-21.1700439c0-13.1396484,5.986084-21.6079102,16.0601807-21.6079102
		c6.7888184,0,11.0229492,3.1392212,13.7236328,8.3951721l-7.4458008,6.277832
		c-0.6571045-3.5039673-2.5551758-5.7669067-5.8399658-5.7669067c-5.8399658,0-6.8624268,6.1316833-6.8624268,12.7018127
		c0,6.2047424,0.8032227,12.4100952,6.8624268,12.4100952c3.3579102,0,5.0367432-2.7013855,6.1317139-5.9130554
		L1213.5250244,481.4586792z"/>
	<path fill="#FFFFFF" d="M1222.8702393,489.2698669v-33.434021h-4.4527588v-7.883667h4.4527588
		c0-9.5631714,5.0367432-16.3519287,17.6660156-13.9428406l-1.5333252,8.540741
		c-1.0949707-0.657074-2.1168213-0.9487915-2.9924316-0.9487915c-2.4090576,0-3.6501465,1.7519836-3.6501465,4.6719971v1.678894
		h6.4970703v7.883667h-6.4970703v33.434021H1222.8702393z"/>
	<path fill="#FFFFFF" d="M1243.0184326,470.2171631v-8.3951721h19.2718506v8.3951721H1243.0184326z"/>
	<path fill="#FFFFFF" d="M1287.9125977,489.2698669c-0.6564941-1.0218506-0.9488525-2.8469238-1.1680908-4.3796997h-0.1455078
		C1284.8470459,487.4447937,1281.8540039,490,1277.0357666,490c-7.5187988,0-11.0959473-5.4751892-11.0959473-12.3370056
		c0-7.59198,6.0592041-13.2133179,20.5130615-13.2133179v-1.6058655c0-4.3796692-1.5328369-7.3727417-5.6213379-7.3727417
		c-3.4309082,0-6.0585938,2.9200134-7.2996826,5.6207581l-5.6207275-6.7156677
		c4.1610107-5.0373535,9.489502-7.1541138,14.5998535-7.1541138c7.2266846,0,13.4320068,4.8181152,13.4320068,16.7167053v19.198822
		c0,2.1173706,0.2186279,4.1610718,1.1679688,6.1322937H1287.9125977z M1286.4528809,471.092865
		c-6.4239502-0.2917175-11.5338135,1.8981323-11.5338135,6.5701294c0,3.1386108,1.897583,4.6719666,4.0880127,4.6719666
		c4.671875,0,7.4458008-4.0149231,7.4458008-8.7599487V471.092865z"/>
	<path fill="#FFFFFF" d="M1328.7198486,489.2698669c0,0-0.7301025-1.9712219-1.0948486-4.5258484h-0.1462402
		C1325.1428223,488.2480164,1321.7119141,490,1317.4052734,490c-8.979126,0-12.2645264-7.6650391-12.2645264-16.0602112V447.952179
		h9.4901123v25.9145203c0,4.0879822,1.5333252,7.8111877,5.9130859,7.8111877c4.3071289,0,6.2053223-3.5770569,6.2053223-7.8111877
		V447.952179h9.489502v35.4046326c0,1.4602966,0.0731201,4.0879822,0.8032227,5.9130554H1328.7198486z"/>
	<path fill="#FFFFFF" d="M1366.4616699,489.342926c-1.6795654,0.4378662-3.9423828,0.657074-6.3514404,0.657074
		c-8.6868896,0-11.8986816-4.4533386-11.8986816-12.7023926v-21.2425232h-4.3071289v-8.1029053h4.3071289V435.97995h9.4901123
		v11.972229h7.9567871v8.1029053h-7.9567871v20.4399109c0,2.9199829,1.8250732,4.6719666,4.2336426,4.6719666
		c1.4602051,0,2.2634277-0.2922974,2.993042-0.7301331L1366.4616699,489.342926z"/>
	<path fill="#FFFFFF" d="M1372.4483643,468.5382385c0-12.9940796,5.0367432-21.3161926,16.2058105-21.3161926
		c11.2420654,0,16.2788086,8.322113,16.2788086,21.3161926c0,13.1396484-5.0367432,21.4617615-16.2788086,21.4617615
		C1377.4851074,490,1372.4483643,481.677887,1372.4483643,468.5382385z M1395.3704834,468.5382385
		c0-6.3514709-1.1680908-12.8479309-6.7163086-12.8479309c-5.4014893,0-6.6425781,6.49646-6.6425781,12.8479309
		c0,5.9855347,1.2410889,12.9204407,6.6425781,12.9204407
		C1394.2023926,481.4586792,1395.3704834,475.1808472,1395.3704834,468.5382385z"/>
	<path fill="#FFFFFF" d="M1433.696167,459.7052002c-2.1173096-3.5770569-4.9642334-4.6719666-7.9572754-4.6719666
		c-2.1168213,0-4.2335205,1.3866272-4.2335205,3.5764771c0,2.1173401,2.3359375,3.431488,5.8399658,4.7450256
		c5.6938477,2.1173706,13.2857666,5.7669067,13.2857666,13.4319458c0,8.1034851-4.9642334,13.2133179-14.1621094,13.2133179
		c-7.4458008,0-12.4100342-3.5770569-15.6948242-8.0303955l6.6431885-6.5695496
		c2.0437012,3.1386108,5.4746094,6.1316833,9.489502,6.1316833c2.993042,0,4.6719971-1.6789246,4.6719971-3.8687439
		c0-2.7013855-3.2116699-4.3802795-7.0079346-5.8399963c-5.6938477-2.1898193-12.3370361-5.2559509-12.3370361-12.7748718
		c0-5.3290405,4.2341309-11.8260803,13.7972412-11.8260803c5.9862061,0,10.585083,2.4090576,13.9428711,6.7156677
		L1433.696167,459.7052002z"/>
	<path fill="#FFFFFF" d="M1448.3704834,438.2428589c0-3.1386108,2.6276855-5.6938171,5.7668457-5.6938171
		c3.1385498,0,5.6938477,2.5552063,5.6938477,5.6938171c0,3.1392212-2.5552979,5.7674866-5.6938477,5.7674866
		C1450.9981689,444.0103455,1448.3704834,441.3820801,1448.3704834,438.2428589z M1449.3192139,489.2698669v-41.317688h9.4901123
		v41.317688H1449.3192139z"/>
	<path fill="#FFFFFF" d="M1465.7441406,489.2698669v-0.1461487l13.9434814-28.0318909
		c0.9482422-1.8975525,2.1162109-3.8687439,2.1162109-3.8687439v-0.1461487h-13.5043945v-9.1247559h28.4697266v0.1455688
		l-14.088501,28.10495c-0.8768311,1.8250732-2.1898193,3.7962646-2.1898193,3.7962646v0.1461487h14.088501v9.1247559H1465.7441406z"
		/>
	<path fill="#FFFFFF" d="M1512.3189697,471.6037903c0.3648682,5.5482788,2.1174316,10.0740967,7.8112793,10.0740967
		c3.2841797,0,5.4752197-2.2629089,7.0804443-5.6207581l6.6431885,5.6938477
		C1530.3498535,487.0069275,1526.116333,490,1518.8885498,490c-10.4382324,0-15.9859619-7.9573364-15.9859619-21.1700439
		c0-13.1396484,5.9124756-21.6079102,15.9859619-21.6079102c12.9216309,0,15.1114502,11.0959473,15.1114502,21.9726868v2.4090576
		H1512.3189697z M1524.9483643,464.815033c-0.1461182-5.3290405-1.6064453-10.0010071-5.6213379-10.0010071
		c-4.6719971,0-6.4245605,4.7450256-6.9355469,10.0010071H1524.9483643z"/>
</g>
</svg>
