<svg xmlns="http://www.w3.org/2000/svg" viewBox="0 0 512 512"><path fill="#5ABBA9" d="M0 0h512v512H0z"/><g fill="none" stroke="#FFF" stroke-width="10" stroke-miterlimit="10"><path d="M55 64.5V55h9.5"/><path stroke-dasharray="18.1904755,18.1904755" d="M82.69 55h354.715"/><path d="M446.5 55h9.5v9.5"/><path stroke-dasharray="19.7692299,19.7692299" d="M456 84.269v227.346"/><path d="M456 321.5v9.5h-9.5"/><path stroke-dasharray="18.1904755,18.1904755" d="M428.31 331H73.595"/><path d="M64.5 331H55v-9.5"/><path stroke-dasharray="19.7692299,19.7692299" d="M55 301.731V74.385"/></g><path fill="#FFF" d="M395.756 303.682c-2.084-3.244-3.012-9.038-3.708-13.904h-.462c-5.562 8.11-15.064 16.222-30.36 16.222-23.87 0-35.226-17.382-35.226-39.166 0-24.102 19.236-41.948 65.122-41.948v-5.098c0-13.904-4.866-23.406-17.846-23.406-10.892 0-19.234 9.27-23.174 17.844l-17.844-21.32c13.21-15.992 30.126-22.712 46.35-22.712 22.942 0 42.642 15.296 42.642 53.07v60.95c0 6.722.694 13.21 3.708 19.468h-29.202zm-4.634-57.706c-20.394-.926-36.616 6.026-36.616 20.858 0 9.964 6.024 14.832 12.978 14.832 14.832 0 23.638-12.746 23.638-27.81v-7.88z"/><path fill="none" stroke="#FFF" stroke-width="10" stroke-miterlimit="10" stroke-dasharray="19,19" d="M256 188.429v283.142"/><path fill="#FFF" d="M239.047 208.348L256 191.385l16.953 16.963v-14.395L256 177l-16.953 16.953zM239.047 451.652L256 468.615l16.953-16.963v14.395L256 483l-16.953-16.953z"/></svg>